HIERARCHY
ROOT Hips
{
    OFFSET 0.000000 0.000000 0.000000
    CHANNELS 6 Xposition Yposition Zposition Zrotation Xrotation Yrotation
    JOINT Spine
    {
        OFFSET -0.000000 7.750029 0.000000
        CHANNELS 3 Zrotation Xrotation Yrotation
        JOINT Spine1
        {
            OFFSET -0.000000 19.767460 0.000000
            CHANNELS 3 Zrotation Xrotation Yrotation
            JOINT Neck
            {
                OFFSET -0.000000 19.686279 1.789662
                CHANNELS 3 Zrotation Xrotation Yrotation
                JOINT Head
                {
                    OFFSET -0.000000 13.231757 -1.890251
                    CHANNELS 3 Zrotation Xrotation Yrotation
                    End Site
                    {
                        OFFSET -0.000000 23.628138 0.000000
                    }
                }
            }
            JOINT LeftShoulder
            {
                OFFSET 3.736819 16.910755 -0.280982
                CHANNELS 3 Zrotation Xrotation Yrotation
                JOINT LeftArm
                {
                    OFFSET 13.626117 0.000000 0.000000
                    CHANNELS 3 Zrotation Xrotation Yrotation
                    JOINT LeftForeArm
                    {
                        OFFSET 31.364786 0.000000 0.000000
                        CHANNELS 3 Zrotation Xrotation Yrotation
                        JOINT LeftHand
                        {
                            OFFSET 23.389509 0.000000 0.000000
                            CHANNELS 3 Zrotation Xrotation Yrotation
                            End Site
                            {
                                OFFSET 14.176883 0.000000 0.000000
                            }
                        }
                    }
                }
            }
            JOINT RightShoulder
            {
                OFFSET -3.821718 16.910755 -0.280982
                CHANNELS 3 Zrotation Xrotation Yrotation
                JOINT RightArm
                {
                    OFFSET -13.626117 0.000000 0.000000
                    CHANNELS 3 Zrotation Xrotation Yrotation
                    JOINT RightForeArm
                    {
                        OFFSET -31.364786 0.000000 0.000000
                        CHANNELS 3 Zrotation Xrotation Yrotation
                        JOINT RightHand
                        {
                            OFFSET -23.389509 0.000000 0.000000
                            CHANNELS 3 Zrotation Xrotation Yrotation
                            End Site
                            {
                                OFFSET -14.176883 0.000000 0.000000
                            }
                        }
                    }
                }
            }
        }
    }
    JOINT LeftUpLeg
    {
        OFFSET 9.451255 0.000000 0.000000
        CHANNELS 3 Zrotation Xrotation Yrotation
        JOINT LeftLeg
        {
            OFFSET -0.000000 -41.898624 0.000000
            CHANNELS 3 Zrotation Xrotation Yrotation
            JOINT LeftFoot
            {
                OFFSET -0.000000 -38.481331 0.000000
                CHANNELS 3 Zrotation Xrotation Yrotation
                JOINT LeftToeBase
                {
                    OFFSET -0.000000 -6.143315 14.176883
                    CHANNELS 3 Zrotation Xrotation Yrotation
                    End Site
                    {
                        OFFSET -0.000000 0.000000 3.780502
                    }
                }
            }
        }
    }
    JOINT RightUpLeg
    {
        OFFSET -9.451255 0.000000 0.000000
        CHANNELS 3 Zrotation Xrotation Yrotation
        JOINT RightLeg
        {
            OFFSET -0.000000 -41.898624 0.000000
            CHANNELS 3 Zrotation Xrotation Yrotation
            JOINT RightFoot
            {
                OFFSET -0.000000 -38.481331 0.000000
                CHANNELS 3 Zrotation Xrotation Yrotation
                JOINT RightToeBase
                {
                    OFFSET -0.000000 -6.143315 14.176883
                    CHANNELS 3 Zrotation Xrotation Yrotation
                    End Site
                    {
                        OFFSET -0.000000 0.000000 3.780502
                    }
                }
            }
        }
    }
}
MOTION
Frames:    10
Frame Time:    0.010000
0.260548    91.741928    8.954332    0.581854    0.710912    165.191864    2.710444    -3.701082    1.872295    -0.264389    5.530112    1.797468    -5.860932    39.974453    8.656835    -6.665080    -30.945101    4.889401    10.258748    3.792847    -2.532615    -67.922241    63.724667    -14.476468    2.624711    -31.004341    -103.064331    8.525082    -27.441360    10.418688    -10.426634    8.076756    1.381877    62.172901    49.567844    29.305687    -8.487350    -28.401657    110.769951    -7.336599    -16.444878    -9.335356    5.097025    0.956864    0.433011    -1.743198    8.860890    -4.460431    -5.112447    -7.591703    21.255802    0.000000    0.000000    0.000000    -4.667543    -0.224367    0.107975    0.962720    9.997415    3.732142    2.685230    -5.270312    -19.459435    0.000000    0.000000    0.000000    
0.262697    91.744484    8.972038    0.573295    0.693208    165.252930    2.720416    -3.674164    1.860338    -0.227717    5.519434    1.784026    -5.860853    39.950638    8.666938    -6.711628    -30.900370    4.885295    10.233069    3.754428    -2.556946    -67.771759    63.714180    -14.584305    2.725937    -31.066034    -102.992523    8.230344    -27.427105    10.306478    -10.444947    8.075371    1.395258    62.126602    49.465443    29.346851    -8.518890    -28.378754    110.700562    -7.323121    -16.394247    -9.296816    5.099010    0.902904    0.416944    -1.730679    8.879468    -4.505189    -5.111621    -7.567061    21.242804    0.000000    0.000000    0.000000    -4.658958    -0.261563    -0.066426    0.905826    10.032435    3.691213    2.740624    -5.275299    -19.255318    0.000000    0.000000    0.000000    
0.263162    91.745834    8.994805    0.559281    0.668825    165.298019    2.708908    -3.644010    1.854279    -0.178070    5.482735    1.776642    -5.802701    39.957001    8.680001    -6.837824    -30.863930    4.863807    10.187809    3.776296    -2.590312    -67.547653    63.655125    -14.746484    2.889758    -31.215664    -103.041534    7.876491    -27.391981    10.839285    -10.426180    8.096975    1.426326    62.048698    49.383610    29.360901    -8.566608    -28.435827    110.648811    -7.149421    -16.420984    -9.186573    5.102924    0.837410    0.381413    -1.758235    8.918150    -4.463665    -5.120903    -7.572004    21.217890    0.000000    0.000000    0.000000    -4.659070    -0.308353    -0.102388    0.927545    10.039343    3.590905    2.709451    -5.226691    -19.236082    0.000000    0.000000    0.000000    
0.260996    91.747643    9.013304    0.539212    0.647640    165.370270    2.719860    -3.614517    1.825488    -0.166369    5.454965    1.747569    -5.852560    39.983662    8.710174    -6.811185    -30.896553    4.890187    10.229591    3.696006    -2.614100    -67.649063    63.633694    -14.660272    2.966618    -31.245554    -102.980530    7.662353    -27.367571    10.693445    -10.489316    8.332253    1.256714    61.648060    49.325615    29.963207    -8.629896    -28.418367    110.356483    -7.074044    -16.407345    -8.801726    5.082020    0.760585    0.387018    -1.722685    8.956246    -4.473545    -5.089597    -7.510001    21.148460    0.000000    0.000000    0.000000    -4.676544    -0.379691    -0.379448    0.896636    10.145423    3.845796    2.679820    -5.276891    -19.247139    0.000000    0.000000    0.000000    
0.267263    91.752632    9.017068    0.510924    0.666140    165.357117    2.677864    -3.578908    1.836866    -0.114899    5.444468    1.758677    -5.896868    40.030342    8.741653    -6.761687    -30.944527    4.926259    10.237850    3.681887    -2.665233    -67.621063    63.556622    -14.657156    3.202744    -31.355412    -102.863960    7.213016    -27.270138    10.560388    -10.469051    8.406654    1.301733    61.520561    49.223557    30.037373    -8.619460    -28.438040    110.367699    -7.235999    -16.424334    -8.876593    5.065753    0.781042    0.387524    -1.755686    8.940096    -4.459052    -5.139797    -7.514335    21.171101    0.000000    0.000000    0.000000    -4.704331    -0.390144    -0.330728    0.905468    10.173386    3.851967    2.708262    -5.278914    -19.315798    0.000000    0.000000    0.000000    
0.234420    91.757271    8.996129    0.475737    0.703656    165.395142    2.751716    -3.551981    1.823724    -0.197148    5.470984    1.747792    -5.819986    40.011883    8.740947    -6.870273    -30.890280    4.904822    10.252967    3.625016    -2.704543    -67.670807    63.546940    -14.567291    3.222243    -31.373495    -102.882996    7.157415    -27.273287    10.511988    -10.485523    8.380789    1.338577    61.527626    49.151951    29.991364    -8.662407    -28.445644    110.339012    -7.309871    -16.370872    -8.916398    4.975212    0.829619    0.311095    -1.717976    8.895430    -4.402186    -5.181681    -7.481860    21.170769    0.000000    0.000000    0.000000    -4.796073    -0.359302    -0.389216    0.924659    10.214009    3.949112    2.754373    -5.339902    -19.340721    0.000000    0.000000    0.000000    
0.299281    91.751305    9.059552    0.493342    0.602547    165.397491    2.599234    -3.536842    1.822362    0.029220    5.374381    1.740724    -5.817818    40.033821    8.740321    -6.866371    -30.900826    4.904216    10.251460    3.594204    -2.736892    -67.659233    63.521866    -14.523649    3.385612    -31.473656    -102.803535    6.818853    -27.236984    10.346461    -10.491288    8.368371    1.393353    61.538528    49.058998    29.939047    -8.616081    -28.467999    110.497009    -7.872886    -16.327900    -9.738549    5.121649    0.664007    0.473183    -1.794294    8.984283    -4.544659    -5.166512    -7.511411    21.160732    0.000000    0.000000    0.000000    -4.659255    -0.521971    -0.343591    0.873146    10.278646    3.886316    2.678112    -5.323452    -19.374266    0.000000    0.000000    0.000000    
0.305165    91.749863    9.071909    0.485671    0.577183    165.414581    2.597175    -3.527054    1.819771    0.055905    5.351302    1.737187    -5.811801    40.066025    8.732820    -6.837086    -30.927973    4.906006    10.261406    3.553168    -2.776934    -67.665886    63.479198    -14.461342    3.362996    -31.401098    -102.728989    6.760386    -27.226572    9.775768    -10.506738    8.364341    1.384026    61.525349    49.049397    29.932871    -8.674382    -28.529198    110.429359    -7.853159    -16.326056    -9.793320    5.135440    0.628118    0.505254    -1.791527    8.985090    -4.563694    -5.196436    -7.504167    21.113045    0.000000    0.000000    0.000000    -4.656885    -0.570277    -0.327154    0.879246    10.321183    3.871021    2.668772    -5.367315    -19.384081    0.000000    0.000000    0.000000    
0.310327    91.751427    9.077429    0.469683    0.561024    165.431412    2.591984    -3.528655    1.813277    0.074803    5.347857    1.729976    -5.693622    40.065002    8.676031    -6.963480    -30.861654    4.828734    10.265645    3.538150    -2.811251    -67.586433    63.439430    -14.479445    3.969597    -31.636829    -102.308418    5.715680    -26.927206    9.351710    -10.516675    8.282524    1.414382    61.635509    49.016758    29.780497    -8.641118    -28.496189    110.400421    -7.961322    -16.340145    -9.707918    5.123180    0.592420    0.545630    -1.774710    9.007053    -4.620710    -5.190879    -7.484524    21.110693    0.000000    0.000000    0.000000    -4.666677    -0.597804    -0.326928    0.883740    10.359680    4.078388    2.642399    -5.387627    -19.585138    0.000000    0.000000    0.000000    
0.312087    91.750854    9.080134    0.456547    0.541128    165.455215    2.595275    -3.505698    1.799535    0.083533    5.306884    1.716236    -5.706015    40.066093    8.667849    -6.882382    -30.857578    4.850060    10.284288    3.514545    -2.835526    -67.634972    63.416943    -14.389954    3.906934    -31.620981    -102.379875    5.822439    -26.964266    9.408658    -10.505697    8.250556    1.460446    61.696556    48.963898    29.637529    -8.466080    -28.529930    110.544731    -7.918136    -16.588272    -9.797351    5.124095    0.570603    0.560288    -1.779138    8.985774    -4.623370    -5.241248    -7.472058    21.101776    0.000000    0.000000    0.000000    -4.678262    -0.628913    -0.353913    0.898206    10.362223    3.859325    2.687512    -5.380119    -19.394445    0.000000    0.000000    0.000000    
